<?xml version="1.0" encoding="utf-8"?>
<!-- Generator: Adobe Illustrator 27.5.0, SVG Export Plug-In . SVG Version: 6.00 Build 0)  -->
<svg version="1.1" xmlns="http://www.w3.org/2000/svg" xmlns:xlink="http://www.w3.org/1999/xlink" x="0px" y="0px"
	 viewBox="0 0 2200 2200" style="enable-background:new 0 0 2200 2200;" xml:space="preserve">
<g id="background">
	<rect style="fill:transparent;" width="2200" height="2200"/>
</g>
<g id="Objects">
	<g>
		<g>
			<path style="fill:#1E51AD;" d="M1609.159,1348.059c0,258.9-209.875,468.785-468.785,468.785s-468.785-209.885-468.785-468.785
				c0-32.509,3.738-68.176,10.537-106.172l-91.284-16.451l174.939-183.148l100.018,232.687l-97.603-17.588
				c-6.089,33.995-9.16,64.372-9.16,90.672c0,51.518,10.067,101.45,29.929,148.41c19.206,45.396,46.708,86.191,81.764,121.235
				c35.045,35.056,75.839,62.558,121.235,81.764c46.959,19.862,96.892,29.929,148.41,29.929c51.518,0,101.45-10.067,148.41-29.929
				c45.396-19.206,86.191-46.708,121.235-81.764c35.056-35.045,62.558-75.839,81.764-121.235
				c19.862-46.959,29.929-96.892,29.929-148.41c0-36.761-6.001-81.479-17.85-132.932c-11.335-49.277-28.169-105.156-50.031-166.096
				c-37.624-104.904-90.366-225.735-156.739-359.115C1240.567,576.311,1183.605,472.784,1140.374,397
				c-43.232,75.784-100.193,179.312-156.717,292.917c-48.37,97.209-89.503,187.75-122.82,270.323l-81.162-32.552
				c138.441-343.145,360.7-703.178,360.7-703.178S1609.159,983.872,1609.159,1348.059z"/>
		</g>
		<ellipse style="fill:#D6DCE5;" cx="1140.374" cy="1943.776" rx="367.367" ry="31.715"/>
	</g>
</g>
</svg>
